<svg width="64" height="40" viewBox="0 0 64 40" fill="none" xmlns="http://www.w3.org/2000/svg">
<path d="M1.03125 36.2333V12.123H7.71807V36.2333H1.03125Z" fill="white"/>
<path d="M22.1211 12.1241V17.147H7.60156V12.1241H22.1211ZM10.8979 6.34766H17.5847V28.8254C17.5847 29.4428 17.6789 29.9242 17.8672 30.2695C18.0556 30.6044 18.3172 30.8398 18.6521 30.9759C18.9974 31.1119 19.3951 31.1799 19.845 31.1799C20.159 31.1799 20.4729 31.1538 20.7868 31.1014C21.1008 31.0386 22.3931 30.8238 22.5606 30.7924L24.7549 34.7961C23.9441 35.7046 21.7548 36.161 21.1479 36.2971C20.5409 36.4436 19.8032 36.5325 18.9346 36.5639C17.3231 36.6267 15.9104 36.4122 14.6965 35.9203C13.4931 35.4285 12.5565 34.6646 11.8868 33.6286C11.217 32.5926 10.8874 31.2846 10.8979 29.7044V6.34766Z" fill="white"/>
<path d="M31.0233 36.6387C29.3334 36.6387 27.8275 36.3456 26.5054 35.7593C25.1834 35.1615 24.1373 34.2821 23.3671 33.121C22.6083 31.9484 22.229 30.4884 22.229 28.741C22.229 27.2696 22.4991 26.0338 23.0394 25.0336C23.5797 24.0335 24.3155 23.2287 25.2466 22.6195C26.1778 22.0102 27.2354 21.5503 28.4195 21.24C29.6151 20.9296 30.8682 20.7111 32.1787 20.5847C33.7191 20.4237 34.9607 20.2743 35.9034 20.1363C36.846 19.9869 37.53 19.7685 37.9554 19.4811C38.3807 19.1937 38.5934 18.7683 38.5934 18.205V18.1016C38.5934 17.0095 38.2485 16.1645 37.5588 15.5667C36.8805 14.9689 35.9149 14.67 34.6618 14.67C33.3398 14.67 32.2879 14.9632 31.5062 15.5495C30.7245 16.1243 30.2071 16.8485 29.9542 17.7222L23.1601 17.1704C23.505 15.561 24.1833 14.17 25.1949 12.9974C26.2066 11.8133 27.5113 10.9051 29.1093 10.2728C30.7187 9.62907 32.581 9.30718 34.6963 9.30718C36.1678 9.30718 37.576 9.47962 38.921 9.8245C40.2776 10.1694 41.4789 10.7039 42.525 11.4282C43.5826 12.1524 44.4161 13.0836 45.0254 14.2217C45.6347 15.3483 45.9393 16.6991 45.9393 18.274V36.1387H38.9728V32.4657H38.7659C38.3405 33.2934 37.7715 34.0234 37.0587 34.6557C36.346 35.2765 35.4895 35.7651 34.4894 36.1214C33.4892 36.4663 32.3339 36.6387 31.0233 36.6387ZM33.1271 31.569C34.2077 31.569 35.1619 31.3564 35.9896 30.931C36.8173 30.4942 37.4668 29.9079 37.9381 29.1721C38.4095 28.4364 38.6451 27.6029 38.6451 26.6718V23.861C38.4152 24.0105 38.0991 24.1484 37.6967 24.2749C37.3059 24.3898 36.8633 24.499 36.369 24.6025C35.8746 24.6945 35.3803 24.7807 34.886 24.8612C34.3917 24.9301 33.9433 24.9934 33.541 25.0509C32.6788 25.1773 31.9258 25.3785 31.282 25.6544C30.6382 25.9303 30.1382 26.3039 29.7818 26.7752C29.4254 27.2351 29.2472 27.8099 29.2472 28.4996C29.2472 29.4998 29.6093 30.2643 30.3336 30.7931C31.0693 31.3104 32.0005 31.569 33.1271 31.569Z" fill="white"/>
<path d="M45.9922 21.3268V36.1738H38.8697V10.4925H45.6578V15.0235H45.9588C46.5273 13.5299 47.4803 12.3484 48.8178 11.479C50.1554 10.5984 51.7772 10.1581 53.6832 10.1581C55.4667 10.1581 57.0216 10.5482 58.348 11.3285C59.6744 12.1087 60.7055 13.2234 61.4411 14.6724C62.1768 16.1103 62.5446 17.8268 62.5446 19.8221V36.1738H55.4221V21.0927C55.4332 19.5211 55.032 18.295 54.2183 17.4144C53.4046 16.5227 52.2844 16.0769 50.8576 16.0769C49.899 16.0769 49.0519 16.2831 48.3163 16.6955C47.5917 17.1079 47.0233 17.7098 46.6109 18.5012C46.2096 19.2815 46.0034 20.2233 45.9922 21.3268Z" fill="white"/>
<g clip-path="url(#clip0_1958_2873)">
<path d="M45.7279 10.3717L40.6719 10.6016C41.5558 11.1563 44.2688 12.5673 45.9515 15.2907L45.7279 10.3717Z" fill="#111928"/>
</g>
<circle cx="4.43745" cy="6.8105" r="3.43745" fill="#EF5353"/>
<defs>
<clipPath id="clip0_1958_2873">
<rect width="5.2994" height="4.44004" fill="white" transform="translate(40.6406 10.3418)"/>
</clipPath>
</defs>
</svg>
